<svg width="760" height="947" viewBox="0 0 760 947" fill="none" xmlns="http://www.w3.org/2000/svg">
<path d="M759.999 243.5C759.999 134.153 747.999 98 747.999 98C747.999 98 659.5 101.965 557 74.5C451.544 46.243 380 0 380 0C380 0 308.457 46.243 203 74.5C100.5 101.965 12.0001 98 12.0001 98C12.0001 98 0 134.153 0 243.5C0 638 380 750 380 750C380 750 759.999 638 759.999 243.5Z" fill="#16AEE5"/>
<path d="M759.999 243.5C759.999 134.153 747.999 98 747.999 98C747.999 98 659.5 101.965 557 74.5C451.543 46.243 380 0 380 0L380 750C380 750 759.999 638 759.999 243.5Z" fill="#1478EA"/>
<path d="M380 80.9414C385.515 83.8109 391.575 86.8734 398.147 90.0664C432.237 106.627 480.739 127.053 538.754 142.598C595.494 157.801 647.918 164.215 686.021 166.878C686.329 166.899 686.635 166.918 686.94 166.939C688.388 185.903 689.499 211.037 689.499 243.5C689.499 414.494 608.408 522.534 525.499 590.007C483.539 624.154 441.295 647.606 409.504 662.477C397.996 667.86 387.979 672.06 380 675.195C372.021 672.06 362.004 667.86 350.496 662.477C318.705 647.606 276.46 624.154 234.5 590.007C151.591 522.534 70.5 414.494 70.5 243.5C70.5 211.037 71.6099 185.903 73.0576 166.939C73.3635 166.918 73.6709 166.899 73.9785 166.878C112.083 164.215 164.507 157.801 221.247 142.598C279.262 127.053 327.763 106.627 361.853 90.0664C368.425 86.8734 374.485 83.8109 380 80.9414Z" fill="#1572F5"/>
<path d="M398.147 90.0664C391.575 86.8734 385.515 83.8109 380 80.9414V675.195C387.979 672.06 397.996 667.86 409.504 662.477C441.295 647.606 483.539 624.154 525.499 590.007C608.408 522.534 689.499 414.494 689.499 243.5C689.499 211.037 688.388 185.903 686.94 166.939C686.635 166.918 686.329 166.899 686.021 166.878C647.918 164.215 595.494 157.801 538.754 142.598C480.739 127.053 432.237 106.627 398.147 90.0664Z" fill="#1348D2"/>
<path d="M369.745 375.719C369.745 455.092 305.4 519.437 226.027 519.437C146.653 519.437 82.3081 455.092 82.3081 375.719C82.3081 356.725 85.9926 338.592 92.6859 321.995C102.779 296.969 107.179 267.643 141.17 259.714C164.95 242.289 194.287 232 226.027 232C305.4 232 369.745 296.345 369.745 375.719Z" fill="#51E8CB"/>
<path d="M677.75 375.516C677.75 454.777 613.496 519.032 534.234 519.032C454.973 519.032 390.718 454.777 390.718 375.516C390.718 296.254 454.973 232 534.234 232C562.658 232 589.152 240.263 611.445 254.518C643.725 264.264 650.288 287.314 661.936 309.96C672.044 329.61 677.75 351.897 677.75 375.516Z" fill="#35ADC3"/>
<path d="M372.505 426L328.005 492L381.505 594.5L432.505 492L388.005 426H372.505Z" fill="#FEDF3B"/>
<path d="M431.909 491.996L387.409 425.996H379.659V592.101L380.909 594.496L431.909 491.996Z" fill="#E1B12A"/>
<path d="M541.681 349.339C482.047 353.575 422.03 466.802 422.03 466.802L395.035 429.228L411.45 393.114L509.944 305.564L639.81 251.939L670.817 301.916C670.817 301.916 608.438 344.597 541.681 349.339Z" fill="#2A91B8"/>
<path d="M218.918 349.339C278.552 353.575 338.569 466.802 338.569 466.802L365.564 429.228L349.148 393.114L250.655 305.564L120.789 251.939L89.7814 301.916C89.7814 301.916 152.161 344.597 218.918 349.339Z" fill="#2A91B8"/>
<path d="M555.506 291L442.004 356.5L463.006 410.5L504.005 432L547.006 428L577.005 407L597.006 373L586.505 319.5L555.506 291Z" fill="#FEDF3B"/>
<path d="M205.505 291L319.007 356.5L298.005 410.5L257.006 432L214.005 428L184.006 407L164.005 373L174.506 319.5L205.505 291Z" fill="#FEDF3B"/>
<path d="M443.095 364.985L509.944 305.564L558.315 285.59L594.405 338.545C577.956 343.887 559.983 348.039 541.681 349.339C512.722 351.396 483.674 379.154 461.451 407.167L443.095 364.985Z" fill="#E1B12A"/>
<path d="M317.442 364.985L250.593 305.564L202.222 285.59L166.132 338.545C182.581 343.887 200.554 348.039 218.856 349.339C247.814 351.396 276.863 379.154 299.086 407.167L317.442 364.985Z" fill="#E1B12A"/>
<path d="M233.79 89.3948L31.5205 123.295L54.6856 170.755L89.7156 212.564L139.435 260.589L198.76 283.754L271.644 315.959L340.009 371.328L371.084 425.568H384.644L450.749 344.774L540.018 293.924L634.938 252.114L702.172 176.969L728.162 123.295L533.238 89.3948L378.429 22.7251L233.79 89.3948Z" fill="#51E8CB"/>
<path d="M533.238 89.3948L380.003 23.2378V426.081L384.644 425.568L450.748 344.774L540.018 293.924L634.938 252.114L702.172 176.969L728.162 123.295L533.238 89.3948Z" fill="#35ADC3"/>
<path d="M460.505 232.5C518.505 186.711 617.505 162.5 617.505 162.5C617.505 162.5 553.005 150.5 491.505 132C430.005 113.5 380.005 84 380.005 84C380.005 84 330.005 113.5 268.505 132C207.005 150.5 142.505 162.5 142.505 162.5C142.505 162.5 241.505 186.711 299.505 232.5C357.505 278.289 380.005 350 380.005 350C380.005 350 402.505 278.289 460.505 232.5Z" fill="#16AEE5"/>
<path d="M460.505 232.5C518.505 186.711 617.505 162.5 617.505 162.5C617.505 162.5 553.005 150.5 491.505 132C430.005 113.5 380.005 84 380.005 84V350C380.005 350 402.505 278.289 460.505 232.5Z" fill="#1577E8"/>
<path d="M66.0086 559.998L91.6214 522.941L168.494 596.758L256.973 677.383L377.911 728.69L410.894 717.696L526.073 658.536L614.551 570.581L665.334 519.274L690.464 530.792L724.495 596.758L737.06 672.671V928.159L739.154 967.425L291.003 963.236L256.973 928.159L212.995 892.558L168.494 865.334L121.595 817.22L76.9078 751.825L51.8394 654.277L66.0086 559.998Z" fill="url(#paint0_linear_29_35)"/>
<path d="M404.333 848.935C385.216 806.761 366.978 736.404 366.978 736.404L615.856 590.252C615.856 590.252 655.56 658.682 674.223 705.586C715.601 809.575 715.781 1006.29 715.781 1006.29L509.394 997.888C509.394 997.888 433.022 912.227 404.333 848.935Z" fill="url(#paint1_linear_29_35)"/>
<path d="M66.0086 559.998L91.6214 522.941L130.058 559.85L121.595 596.758V658.536L130.003 710.414L155.165 781.326L187.189 845.832L212.995 892.558L168.494 865.334L121.595 817.22L76.9078 751.825L51.8394 654.277L66.0086 559.998Z" fill="url(#paint2_linear_29_35)"/>
<path d="M430.468 717.291L394.133 731.719L410.163 762.177L458.789 843.932L503.14 892.024L569.934 941.718L596.651 969.504L736.651 962.024L739.857 859.963L693.369 847.138L638.865 813.474L603.598 779.81L582.758 772.329L615.888 843.932L552.835 825.764L478.56 772.329L430.468 717.291Z" fill="#FEDF3B"/>
<path d="M582.758 772.329L615.888 843.932L687.322 964.659L736.651 962.023L739.857 859.963L693.369 847.138L638.865 813.474L603.598 779.81L582.758 772.329Z" fill="#FEDF3B"/>
<path d="M584.259 954.247L644.04 959.601C644.04 959.601 579.954 909.81 549.204 875.749C518.453 841.689 486.558 785.166 486.558 785.166L476.297 770.443L428.115 715.57L395.994 724.492L412.501 766.428L463.805 848.515L543.216 920.787L584.259 954.247Z" fill="#E1B12A"/>
<path d="M706.195 851.764C715.713 932.712 715.781 1006.29 715.781 1006.29L633.764 875.596L595.371 806.288L583.404 764.903L624.291 800.803L706.195 851.764Z" fill="#E1B12A"/>
<path opacity="0.25" d="M380 807C380 807 176.986 747.164 67.733 560.914L91.6057 520.34L195.283 618.589L307.103 698.383L380 729.323L506.421 671.392L629.401 556.74L666.551 511.263L700.564 546.181C593.669 744.024 380 807 380 807Z" fill="#1D1D4F"/>
<path fill-rule="evenodd" clip-rule="evenodd" d="M380 0C380.181 0.116932 451.678 46.2787 557 74.5C659.5 101.965 748 98 748 98C748.029 98.0888 760 134.288 760 243.5L759.995 245.809C759.579 356.088 729.417 444.193 686.254 513.882C686.51 514.194 686.771 514.513 687.035 514.84C692.552 521.668 699.963 531.574 707.639 543.992C722.94 568.747 739.574 603.944 743.949 644.938C751.357 714.361 748.525 787.009 747.637 857.127C747.26 886.904 746.601 912.716 746.035 931.087C745.94 934.158 745.846 937.021 745.758 939.66C739.173 941.538 732.445 943.073 725.591 944.245C725.728 940.314 725.883 935.696 726.044 930.471C726.55 914.059 727.128 891.672 727.513 865.818C725.087 865.379 722.219 864.78 718.903 863.953C707.143 861.022 689.725 855.277 666.19 844.021C641.939 832.423 619.102 811.891 599.026 788.963C603.08 796.967 607.049 804.664 610.84 811.817C615.238 820.115 620.086 828.988 625.184 838.13C641.338 867.097 659.917 898.622 674.477 922.937C680.019 932.191 684.974 940.393 688.984 947H665.61C663.047 942.753 660.264 938.131 657.318 933.211C643.402 909.972 625.769 880.069 610.036 852.014C608.754 851.768 607.241 851.467 605.524 851.104C599.733 849.88 591.589 847.958 582.084 845.153C563.164 839.569 538.43 830.362 516.073 815.896C492.696 800.769 469.489 777.602 452.393 758.651C443.777 749.1 436.579 740.469 431.531 734.22C430.617 733.089 429.775 732.035 429.005 731.067C422.088 734.148 415.741 736.819 410.072 739.104C410.461 740.1 410.883 741.165 411.339 742.293C414.676 750.551 419.794 762.237 426.873 775.814C441.061 803.03 462.966 837.531 493.934 867.289C515.779 888.281 547.236 911.662 573.547 929.966C582.838 936.429 591.43 942.218 598.649 947H563.017C562.721 946.795 562.424 946.591 562.126 946.384C535.659 927.971 503.116 903.851 480.076 881.711C447.044 849.969 423.948 813.47 409.137 785.061C401.716 770.826 396.334 758.543 392.795 749.785C392.283 748.518 391.811 747.324 391.375 746.208C384.117 748.783 380.05 749.986 380 750C379.875 749.963 239.377 708.511 129.278 587.337C128.731 597.343 128.464 609.904 129.012 624.461C130.484 663.532 137.823 716.816 161.251 773.691C182.671 825.688 209.098 864.97 235.462 894.473C255.936 917.383 276.418 934.447 294.566 947H261.375C248.576 936.518 235.211 924.045 221.858 909.255C221.035 908.843 219.953 908.295 218.639 907.608C215.468 905.951 210.931 903.491 205.374 900.236C194.266 893.732 179.029 884.024 162.421 871.161C129.329 845.531 90.15 806.88 67.8325 755.482C33.8885 677.309 37.7338 616.832 50.7153 575.503C57.1723 554.946 65.8238 539.332 72.9321 528.786C74.8893 525.883 76.7329 523.362 78.3823 521.224C32.4494 449.935 0.000488281 358.779 0.000488281 243.5C0.000488281 134.217 11.9866 98.0419 12.0005 98C12.2399 98.0107 100.639 101.928 203 74.5C308.424 46.2519 379.955 0.0292748 380 0ZM89.5161 539.964C83.312 549.168 75.5884 563.054 69.7954 581.497C58.2769 618.168 54.122 673.692 86.1782 747.518C106.631 794.62 142.953 830.787 174.667 855.35C178.858 858.595 182.958 861.627 186.916 864.448C171.033 840.864 155.958 813.349 142.759 781.309C118.226 721.751 110.564 666.035 109.027 625.214C108.258 604.792 109.019 588.054 109.982 576.368C110.315 572.326 110.673 568.885 111 566.104C103.897 557.386 96.9733 548.303 90.2808 538.841C90.0286 539.207 89.7739 539.581 89.5161 539.964ZM674.761 531.569C635.308 589.524 587.089 633.749 541.168 666.727C542.663 669.562 544.416 672.828 546.407 676.452C553.774 689.861 564.39 708.108 577.384 727.476C603.718 766.726 638.568 808.641 674.82 825.979C697.284 836.722 713.433 841.978 723.74 844.547C725.211 844.913 726.564 845.223 727.798 845.488C728.806 778.357 730.919 711.326 724.061 647.062C720.112 610.056 704.995 577.752 690.627 554.508C684.912 545.26 679.357 537.52 674.761 531.569ZM523.992 678.629C496.32 697.125 470.033 711.516 447.676 722.375C452.515 728.343 459.25 736.394 467.244 745.255C484.024 763.856 505.817 785.439 526.937 799.104C547.08 812.138 569.818 820.681 587.746 825.972C591.067 826.952 594.21 827.816 597.123 828.573C595.772 826.07 594.453 823.604 593.169 821.183C577.142 790.942 558.06 751.391 543.026 719.496C535.499 703.529 528.97 689.443 524.322 679.348C524.21 679.106 524.101 678.866 523.992 678.629ZM41.6431 179.794C40.6591 197.167 40.0005 218.233 40.0005 243.5C40.0005 425.853 127.109 541.934 215.249 613.663C259.605 649.761 304.124 674.457 337.574 690.104C354.252 697.905 368.049 703.396 377.516 706.889C378.381 707.208 379.21 707.508 380 707.794C380.791 707.508 381.62 707.208 382.485 706.889C391.952 703.396 405.749 697.905 422.427 690.104C455.877 674.457 500.395 649.761 544.751 613.663C632.891 541.934 720 425.853 720 243.5C720 218.242 719.34 197.181 718.356 179.812C716.203 184.084 713.937 188.328 711.553 192.572C705.523 203.425 698.539 213.872 690.72 223.744C690.299 241.076 689.351 271.019 687.504 291C684.771 320.582 677.004 361 677.004 361C677.004 361 670.51 329.562 662.504 311.5C656.275 297.447 643.696 279.535 638.419 272.275C621.436 283.703 602.871 292.794 583.225 298.836C597.973 314.572 607.004 335.731 607.004 359C607.004 407.601 567.605 447 519.004 447C478.899 447 445.061 420.171 434.456 383.482C423.259 396.207 408.503 408.003 401.005 423C406.771 431.476 414.946 442.264 420.505 451.307C427.165 462.283 436.441 473.075 443.085 484.031L446.393 489.103L444.379 495.27C437.275 514.354 430.194 532.901 421.083 551.831C411.711 570.343 401.049 586.419 389.845 602.867L380.004 616.968L370.164 602.867C358.959 586.419 348.304 570.336 338.957 551.815C329.871 532.878 322.831 514.315 315.793 495.213L313.755 489.548L317.07 484.123C323.752 473.191 332.288 463.439 339.005 452.5C344.69 443.357 352.59 431.561 358.505 423C350.874 407.571 337.16 395.448 325.798 382.611C315.48 419.746 281.426 447 241.004 447C192.403 447 153.005 407.601 153.004 359C153.004 335.732 162.035 314.572 176.783 298.836C157.136 292.794 138.571 283.703 121.588 272.275C116.312 279.535 103.733 297.447 97.5044 311.5C89.4986 329.562 83.0044 361 83.0044 361C83.0044 361 75.2381 320.582 72.5044 291C70.658 271.019 69.709 241.076 69.2876 223.744C61.4692 213.873 54.4854 203.425 48.4556 192.572C46.0688 188.322 43.7982 184.073 41.6431 179.794ZM379.655 437.632C372.838 446.903 365.988 456.408 359.857 465.693C353.983 474.689 348.109 483.733 342.253 492.767C347.911 509.254 354.032 525.946 361.052 541.185C366.368 552.228 372.979 563.422 380.002 574.333C387.022 563.419 393.627 552.219 398.926 541.169C405.907 525.961 411.98 509.301 417.572 492.838C411.689 483.836 405.779 474.829 399.865 465.875C393.617 456.526 386.617 446.949 379.655 437.632ZM204.125 306.686C187.676 318.306 177.004 337.416 177.004 359C177.005 394.346 205.658 423 241.004 423C274.525 423 302.025 397.23 304.777 364.421C303.679 362.487 302.528 360.658 301.324 358.921C294.885 353.549 288.139 348.488 281.139 343.742C282.35 347.613 283.004 351.73 283.004 356C283.004 378.644 264.648 397 242.004 397C219.361 397 201.004 378.644 201.004 356C201.004 337.454 213.319 321.787 230.216 316.723C227.212 315.948 224.502 315.018 222.173 314.134C217.165 312.232 211.225 309.406 208.307 308.126C208.081 308.027 207.861 307.934 207.65 307.843C206.476 307.451 205.301 307.064 204.125 306.686ZM555.89 306.69C554.652 307.091 553.416 307.501 552.182 307.918C552.026 307.985 551.866 308.054 551.702 308.126C548.784 309.406 542.843 312.232 537.835 314.134C535.506 315.018 532.796 315.948 529.792 316.723C546.69 321.787 559.004 337.454 559.004 356C559.004 378.644 540.648 397 518.004 397C495.361 397 477.004 378.644 477.004 356C477.004 352.024 477.573 348.181 478.628 344.545C471.213 349.672 464.091 355.146 457.327 360.954C456.608 362.072 455.91 363.226 455.232 364.421C457.984 397.23 485.484 423 519.004 423C554.35 423 583.004 394.346 583.004 359C583.004 337.418 572.335 318.311 555.89 306.69ZM380 46.3398C371.672 50.9427 361.092 56.5282 348.526 62.6328C315.743 78.5586 269.081 98.2045 213.353 113.137C158.988 127.704 108.586 133.885 71.8521 136.452C67.0619 136.787 62.494 137.06 58.1704 137.282C63.309 150.356 69.9147 163.537 77.2817 175.604C104.076 220.072 145.758 253.831 195.17 266.615C272.314 286.921 317.07 301 379.655 393C443.085 301 487.838 286.998 564.838 266.615C614.25 253.831 655.934 220.072 682.728 175.604C690.095 163.537 696.699 150.356 701.837 137.282C697.512 137.059 692.942 136.787 688.149 136.452C651.415 133.885 601.013 127.704 546.648 113.137C490.921 98.2046 444.259 78.5586 411.476 62.6328C398.91 56.5281 388.329 50.9427 380 46.3398Z" fill="#1D1D4F"/>
<circle cx="220.534" cy="346.529" r="17.5286" fill="#16AEE5"/>
<path d="M503.273 329.344C509.608 331.985 514.063 338.236 514.063 345.528C514.063 355.209 506.214 363.058 496.534 363.058C486.853 363.057 479.005 355.209 479.005 345.528C479.005 345.1 479.021 344.675 479.051 344.254C486.829 338.898 494.928 333.922 503.273 329.344Z" fill="#0090C7"/>
<defs>
<linearGradient id="paint0_linear_29_35" x1="395.497" y1="519.274" x2="395.497" y2="828.347" gradientUnits="userSpaceOnUse">
<stop stop-color="#52EACD"/>
<stop offset="1" stop-color="#08B9ED"/>
</linearGradient>
<linearGradient id="paint1_linear_29_35" x1="541.379" y1="451.418" x2="541.379" y2="1051.98" gradientUnits="userSpaceOnUse">
<stop stop-color="#1478EA"/>
<stop offset="1" stop-color="#25A3D3"/>
</linearGradient>
<linearGradient id="paint2_linear_29_35" x1="167.818" y1="576.666" x2="158.61" y2="886.532" gradientUnits="userSpaceOnUse">
<stop stop-color="#49B4ED"/>
<stop offset="1" stop-color="#1478EA"/>
</linearGradient>
</defs>
</svg>
